# xmcd CD database file
#
# Track frame offsets:
#	150
#	23758
#	56978
#	81954
#	119726
#	160057
#	192749
#	225184
#	257570
#	283558
#
# Disc length: 4095 seconds
#
# Revision: 0
# Processed by: cddbd v1.5PL3 Copyright (c) Steve Scherf et al.
# Submitted via: CDex 1.50beta8
#
DISCID=870ffd0a
DTITLE=Various Artist - smokin' fish compilation vol.1 
DYEAR=2003
DGENRE=Trance
TTITLE0=Sept6
TTITLE1=Total Recall
TTITLE2=Proper Things[Original Mix]
TTITLE3=Flow Look in 2 the edge of my mind[K.v.t. Remix]
TTITLE4=Star Gate[cosmo frontier Mix]
TTITLE5=Moon Gate
TTITLE6=Lights at dawn[Original Mix]
TTITLE7=Meteor[E.L.E. Mix]
TTITLE8=Circle of Lust
TTITLE9=Come with me[Original Mix]
EXTD=YEAR: 2003
EXTT0=
EXTT1=
EXTT2=
EXTT3=
EXTT4=
EXTT5=
EXTT6=
EXTT7=
EXTT8=
EXTT9=
PLAYORDER=
